<svg width="40.000000" height="40.000000" viewBox="0 0 40 40" fill="none" xmlns="http://www.w3.org/2000/svg" xmlns:xlink="http://www.w3.org/1999/xlink">
	<desc>
			Created with Pixso.
	</desc>
	<defs>
		<clipPath id="clip798_11573">
			<rect id="person_2_fill" width="40.00000" height="40.00000" transform="translate(8.750000 8.750000)" fill="white" fill-opacity="0"/>
		</clipPath>
	</defs>
	<circle id="椭圆 59" cx="20.000000" cy="20.000000" r="20.000000" fill="#0A59F7" fill-opacity="0.100275"/>
	<g clip-path="url(#clip798_11573)">
		<g opacity="0.000000">
			<rect id="rect" x="8.750000" y="8.750000" width="22.500000" height="22.500000" fill="#000000" fill-opacity="1.000000"/>
		</g>
		<path id="path" d="M18.08 13.26C17.41 13.26 16.79 13.43 16.22 13.76C15.65 14.09 15.2 14.54 14.87 15.11C14.54 15.68 14.37 16.3 14.37 16.98C14.37 17.65 14.54 18.28 14.87 18.85C15.2 19.42 15.65 19.87 16.22 20.21C16.79 20.55 17.41 20.72 18.08 20.72C18.76 20.72 19.38 20.55 19.95 20.21C20.52 19.87 20.97 19.42 21.3 18.85C21.63 18.28 21.8 17.65 21.8 16.98C21.8 16.3 21.63 15.68 21.3 15.11C20.97 14.54 20.52 14.09 19.95 13.76C19.38 13.43 18.76 13.26 18.08 13.26ZM17.45 21.66C16.41 21.66 15.36 21.93 14.33 22.45C13.31 22.98 12.46 23.69 11.8 24.6C11.15 25.5 10.82 26.5 10.82 27.58C10.82 28.1 11 28.55 11.38 28.93C11.75 29.3 12.21 29.49 12.73 29.49L23.42 29.49C23.96 29.49 24.41 29.3 24.79 28.93C25.16 28.55 25.35 28.1 25.35 27.58C25.35 26.5 25.02 25.5 24.36 24.6C23.7 23.69 22.86 22.98 21.83 22.45C20.8 21.93 19.76 21.66 18.71 21.66L17.45 21.66Z" fill="#0A59F7" fill-opacity="1.000000" fill-rule="nonzero"/>
		<path id="path" d="M23.03 16.98C23.03 17.11 23.02 17.29 22.99 17.5L22.97 17.75C23.75 17.52 24.39 17.08 24.88 16.43C25.37 15.78 25.62 15.04 25.62 14.21C25.62 13.54 25.45 12.91 25.12 12.35C24.79 11.78 24.34 11.32 23.77 10.99C23.2 10.65 22.58 10.48 21.91 10.48C21.28 10.48 20.69 10.63 20.15 10.92C19.61 11.21 19.17 11.61 18.82 12.12C19.6 12.24 20.32 12.53 20.96 12.98C21.6 13.45 22.11 14.02 22.48 14.72C22.85 15.42 23.03 16.17 23.03 16.98ZM22.63 18.89C22.48 19.26 22.28 19.61 22.03 19.94C21.79 20.26 21.5 20.56 21.17 20.83C22.11 21.11 22.96 21.56 23.72 22.17C24.47 22.78 25.09 23.48 25.56 24.27C26.04 25.06 26.34 25.88 26.47 26.73L27.24 26.73C27.78 26.73 28.24 26.54 28.61 26.16C28.99 25.79 29.17 25.34 29.17 24.81C29.17 23.73 28.85 22.74 28.21 21.84C27.56 20.94 26.74 20.23 25.72 19.7C24.71 19.18 23.68 18.91 22.63 18.89Z" fill="#0A59F7" fill-opacity="0.501961" fill-rule="nonzero"/>
	</g>
</svg>
