<svg width="40.000000" height="40.000000" viewBox="0 0 40 40" fill="none" xmlns="http://www.w3.org/2000/svg" xmlns:xlink="http://www.w3.org/1999/xlink">
	<desc>
			Created with Pixso.
	</desc>
	<defs>
		<clipPath id="clip798_10783">
			<rect id="star_bookmark_fill" width="40.00000" height="40.00000" transform="translate(8.750000 8.750000)" fill="white" fill-opacity="0"/>
		</clipPath>
	</defs>
	<circle id="椭圆 54" cx="20.000000" cy="20.000000" r="20.000000" fill="#0A59F7" fill-opacity="0.100275"/>
	<g clip-path="url(#clip798_10783)">
		<path id="减去顶层" d="M19.418 25.0157C19.5811 24.8657 19.7773 24.7907 20.0088 24.7907C20.2402 24.7907 20.4307 24.8657 20.5811 25.0157L25.1934 29.3845C25.3936 29.5657 25.6279 29.6782 25.8965 29.7219C26.165 29.7657 26.4277 29.7344 26.6836 29.6282C26.9209 29.522 27.1152 29.3563 27.2646 29.1313C27.415 28.9063 27.4902 28.6594 27.4902 28.3907L27.4902 12.1719Q27.4902 11.8035 27.3672 11.4822Q27.2266 11.1169 26.9277 10.8126C26.5527 10.425 26.1025 10.2313 25.5771 10.2313L14.4209 10.2313Q14.0625 10.2313 13.75 10.3522Q13.377 10.4965 13.0713 10.8126Q12.7725 11.1169 12.6318 11.4822Q12.5088 11.8035 12.5088 12.1719L12.5088 28.3907C12.5088 28.6594 12.584 28.9063 12.7334 29.1313C12.8838 29.3563 13.0771 29.522 13.3154 29.6282C13.5273 29.7469 13.7744 29.7844 14.0557 29.7407C14.3428 29.697 14.584 29.5782 14.7773 29.3845L19.418 25.0157ZM23.9824 16.8499C23.9639 16.9874 23.9111 17.0999 23.8232 17.1874L22.248 18.4905C22.1855 18.5343 22.1484 18.5843 22.1357 18.6406C22.123 18.6906 22.123 18.7468 22.1357 18.8093L22.6328 20.8343C22.6641 20.9655 22.6455 21.0843 22.5762 21.1906C22.5078 21.2968 22.4111 21.3655 22.2861 21.3968C22.1543 21.428 22.0293 21.4124 21.9111 21.3499L20.1572 20.2249C20.1143 20.1937 20.0605 20.178 19.998 20.178Q19.9619 20.178 19.9277 20.185Q19.8721 20.196 19.8203 20.2249L18.0859 21.3499C17.9482 21.4124 17.8174 21.428 17.6924 21.3968C17.5674 21.3655 17.4697 21.2936 17.4014 21.1812C17.333 21.0687 17.3135 20.9437 17.3447 20.8062L17.8418 18.8093C17.8545 18.7468 17.8486 18.6906 17.8232 18.6406C17.8047 18.5843 17.7793 18.5343 17.748 18.4905L16.1729 17.1874Q16.082 17.1125 16.04 17.0163Q16.0088 16.9438 16.0049 16.8593C15.998 16.7343 16.0322 16.6187 16.1074 16.5124C16.1826 16.4062 16.2949 16.3468 16.4453 16.3343L18.4893 16.1749C18.5947 16.1749 18.6855 16.1155 18.7607 15.9968L19.5479 14.0843C19.5918 13.9655 19.6797 13.8874 19.8105 13.8499Q19.9043 13.8218 19.998 13.8218Q20.0918 13.8218 20.1855 13.8499C20.3174 13.8874 20.4043 13.9655 20.4482 14.0843L21.2354 15.9968C21.248 16.053 21.2822 16.0968 21.3389 16.1281C21.3887 16.1593 21.4453 16.1749 21.5078 16.1749L23.5322 16.3343Q23.7002 16.3483 23.8105 16.4349Q23.8486 16.4647 23.8799 16.5031C23.9609 16.5968 23.9951 16.7124 23.9824 16.8499Z" clip-rule="evenodd" fill="#0A59F7" fill-opacity="1.000000" fill-rule="evenodd"/>
		<path id="path" d="M23.82 17.18C23.91 17.1 23.96 16.98 23.98 16.85C23.99 16.71 23.96 16.59 23.88 16.5C23.79 16.4 23.68 16.34 23.53 16.33L21.5 16.17C21.44 16.17 21.38 16.15 21.33 16.12C21.28 16.09 21.24 16.05 21.23 15.99L20.44 14.08C20.4 13.96 20.31 13.88 20.18 13.85C20.06 13.81 19.93 13.81 19.81 13.85C19.68 13.88 19.59 13.96 19.54 14.08L18.76 15.99C18.68 16.11 18.59 16.17 18.49 16.17L16.44 16.33C16.29 16.34 16.18 16.4 16.1 16.51C16.03 16.61 15.99 16.73 16 16.85C16.01 16.99 16.06 17.1 16.17 17.18L17.74 18.49C17.78 18.53 17.8 18.58 17.82 18.64C17.84 18.69 17.85 18.74 17.84 18.8L17.34 20.8C17.31 20.94 17.33 21.06 17.4 21.18C17.47 21.29 17.56 21.36 17.69 21.39C17.81 21.42 17.94 21.41 18.08 21.35L19.82 20.22C19.87 20.19 19.93 20.17 19.99 20.17C20.06 20.17 20.11 20.19 20.15 20.22L21.91 21.35C22.03 21.41 22.15 21.42 22.28 21.39C22.41 21.36 22.5 21.29 22.57 21.19C22.64 21.08 22.66 20.96 22.63 20.83L22.13 18.8C22.12 18.74 22.12 18.69 22.13 18.64C22.14 18.58 22.18 18.53 22.24 18.49L23.82 17.18Z" fill="#0A59F7" fill-opacity="0.501961" fill-rule="nonzero"/>
	</g>
</svg>
