<svg width="40.000000" height="40.000000" viewBox="0 0 40 40" fill="none" xmlns="http://www.w3.org/2000/svg" xmlns:xlink="http://www.w3.org/1999/xlink">
	<desc>
			Created with Pixso.
	</desc>
	<defs>
		<clipPath id="clip798_11535">
			<rect id="romantic_light" width="40.00000" height="40.00000" transform="translate(8.750000 8.750000)" fill="white" fill-opacity="0"/>
		</clipPath>
	</defs>
	<circle id="椭圆 52" cx="20.000000" cy="20.000000" r="20.000000" fill="#0A59F7" fill-opacity="0.100275"/>
	<g clip-path="url(#clip798_11535)">
		<g opacity="0.000000">
			<rect id="rect" x="8.750000" y="8.750000" width="22.500000" height="22.500000" fill="#000000" fill-opacity="1.000000"/>
		</g>
		<path id="path" d="M14.64 12.28C13.82 12.29 13.07 12.52 12.39 12.97C11.72 13.42 11.18 14.03 10.78 14.8C10.39 15.56 10.19 16.41 10.19 17.34C10.19 18.92 10.73 20.5 11.8 22.08C12.88 23.66 14.09 24.99 15.44 26.08C16.78 27.17 17.69 27.71 18.18 27.71C18.65 27.71 19.56 27.17 20.91 26.08C22.26 24.99 23.48 23.66 24.56 22.08C25.64 20.5 26.18 18.92 26.18 17.34C26.18 16.4 25.98 15.54 25.56 14.76C25.15 13.99 24.59 13.38 23.89 12.95C23.18 12.5 22.41 12.28 21.57 12.28C20.91 12.28 20.29 12.41 19.7 12.68C19.12 12.95 18.61 13.33 18.19 13.81C17.76 13.31 17.24 12.94 16.64 12.67C16.04 12.41 15.37 12.28 14.64 12.28Z" fill="#0A59F7" fill-opacity="1.000000" fill-rule="nonzero"/>
		<path id="path" d="M29.8 19.21C29.8 18.38 29.56 17.65 29.09 17.01C28.61 16.38 27.99 15.95 27.24 15.74C27.63 17.57 27.36 19.4 26.45 21.24C25.52 23.08 24.23 24.75 22.58 26.25C23.14 26.59 23.51 26.76 23.71 26.76C24.05 26.76 24.74 26.38 25.78 25.61C26.81 24.84 27.74 23.88 28.56 22.73C29.39 21.58 29.8 20.41 29.8 19.21Z" fill="#0A59F7" fill-opacity="0.501961" fill-rule="nonzero"/>
	</g>
</svg>
