<svg width="40.000000" height="40.000000" viewBox="0 0 40 40" fill="none" xmlns="http://www.w3.org/2000/svg" xmlns:xlink="http://www.w3.org/1999/xlink">
	<desc>
			Created with Pixso.
	</desc>
	<defs>
		<clipPath id="clip798_10777">
			<rect id="message_on_message_fill" width="40.00000" height="40.00000" transform="translate(8.750000 8.750000)" fill="white" fill-opacity="0"/>
		</clipPath>
	</defs>
	<circle id="椭圆 55" cx="20.000000" cy="20.000000" r="20.000000" fill="#0A59F7" fill-opacity="0.100275"/>
	<g clip-path="url(#clip798_10777)">
		<g opacity="0.000000">
			<rect id="rect" x="8.750000" y="8.750000" width="22.500000" height="22.500000" fill="#000000" fill-opacity="1.000000"/>
		</g>
		<path id="path" d="M12.75 25.71C13.24 25.59 13.68 25.46 14.05 25.34C14.43 25.21 14.79 25.08 15.16 24.93C15.35 24.83 15.54 24.76 15.71 24.71C15.88 24.65 16.03 24.63 16.15 24.63C16.39 24.65 16.63 24.66 16.86 24.67C17.41 24.74 17.85 24.77 18.18 24.77C19.58 24.77 20.89 24.46 22.09 23.84C23.29 23.23 24.24 22.39 24.94 21.34C25.63 20.28 25.98 19.12 25.98 17.86C25.98 16.6 25.63 15.44 24.94 14.38C24.24 13.32 23.29 12.49 22.09 11.88C20.89 11.26 19.58 10.95 18.18 10.95C16.76 10.95 15.46 11.26 14.26 11.89C13.06 12.5 12.11 13.35 11.41 14.41C10.71 15.46 10.37 16.61 10.37 17.86C10.37 18.85 10.59 19.78 11.03 20.66C11.47 21.54 12.09 22.29 12.89 22.92C13.13 23.16 13.19 23.48 13.09 23.88C12.98 24.28 12.79 24.74 12.52 25.26C12.48 25.35 12.46 25.5 12.51 25.58C12.56 25.67 12.64 25.71 12.75 25.71Z" fill="#0A59F7" fill-opacity="1.000000" fill-rule="nonzero"/>
		<path id="path" d="M27.18 17.34C27.18 19.23 26.71 20.85 25.78 22.2C24.85 23.55 23.63 24.54 22.11 25.18C20.59 25.82 18.97 26.07 17.25 25.94C17.91 26.64 18.71 27.19 19.64 27.59C20.56 27.99 21.56 28.19 22.63 28.19C23.21 28.19 23.78 28.12 24.34 27.98C24.44 27.97 24.56 27.99 24.68 28.03C24.81 28.07 24.98 28.15 25.17 28.25C25.5 28.44 25.84 28.59 26.18 28.71C26.53 28.84 26.95 28.94 27.44 29.01C27.53 29.03 27.61 29 27.66 28.93C27.73 28.85 27.74 28.78 27.69 28.7L27.64 28.61C27.5 28.31 27.38 28.05 27.29 27.81C27.2 27.58 27.14 27.35 27.14 27.13C27.13 26.9 27.2 26.72 27.35 26.57C28.37 25.71 29.05 24.72 29.39 23.6C29.73 22.47 29.7 21.35 29.32 20.23C28.94 19.11 28.23 18.15 27.18 17.34Z" fill="#0A59F7" fill-opacity="0.501961" fill-rule="nonzero"/>
	</g>
</svg>
