<svg width="22.027344" height="21.986267" viewBox="0 0 22.0273 21.9863" fill="none" xmlns="http://www.w3.org/2000/svg" xmlns:xlink="http://www.w3.org/1999/xlink">
	<desc>
			Created with Pixso.
	</desc>
	<defs/>
	<path id="path" d="M5.8 18.96C3.78 17.63 2.47 15.85 1.87 13.62C1.25 11.39 1.4 9.21 2.32 7.09C3.23 4.97 4.78 3.41 6.98 2.4L8.15 3.57C8.25 3.67 8.36 3.72 8.5 3.72C8.64 3.72 8.75 3.67 8.85 3.57L11.59 0.86C11.68 0.77 11.73 0.65 11.73 0.51C11.73 0.38 11.68 0.26 11.59 0.15C11.49 0.05 11.37 0 11.23 0C10.41 -0.02 9.62 0.05 8.87 0.2C8.12 0.35 7.43 0.57 6.79 0.84C4.09 1.96 2.18 3.77 1.05 6.26C-0.09 8.76 -0.3 11.33 0.4 13.98C1.1 16.63 2.63 18.7 4.99 20.21C5.21 20.32 5.41 20.35 5.6 20.3C5.78 20.25 5.92 20.15 6.02 19.99C6.13 19.83 6.17 19.66 6.14 19.47C6.1 19.29 5.94 19.09 5.8 18.96ZM16.15 20.71C18.56 19.44 20.25 17.6 21.21 15.17C22.17 12.74 22.28 10.26 21.55 7.74C20.81 5.22 19.3 3.22 17.03 1.75C16.85 1.64 16.67 1.6 16.47 1.64C16.27 1.68 16.1 1.79 15.98 1.97C15.86 2.14 15.83 2.33 15.88 2.54C15.92 2.75 16.04 2.91 16.22 3.02C18.2 4.3 19.5 6.06 20.13 8.29C20.75 10.52 20.61 12.71 19.7 14.84C18.78 16.98 17.23 18.56 15.04 19.58L13.87 18.41C13.75 18.3 13.63 18.24 13.49 18.24C13.35 18.24 13.24 18.3 13.15 18.41L10.43 21.12C10.33 21.21 10.29 21.33 10.29 21.47C10.29 21.6 10.33 21.72 10.43 21.83C10.53 21.93 10.65 21.98 10.79 21.98C11.64 22 12.48 21.91 13.3 21.72C14.12 21.53 15.07 21.19 16.15 20.71Z" fill="#000000" fill-opacity="0.901961" fill-rule="nonzero"/>
</svg>
