<svg width="40.000000" height="40.000000" viewBox="0 0 40 40" fill="none" xmlns="http://www.w3.org/2000/svg" xmlns:xlink="http://www.w3.org/1999/xlink">
	<desc>
			Created with Pixso.
	</desc>
	<defs>
		<clipPath id="clip798_10858">
			<rect id="doc_text_badge_clock_fill" width="40.00000" height="40.00000" transform="translate(8.750000 8.750000)" fill="white" fill-opacity="0"/>
		</clipPath>
	</defs>
	<circle id="椭圆 58" cx="20.000000" cy="20.000000" r="20.000000" fill="#0A59F7" fill-opacity="0.100275"/>
	<g clip-path="url(#clip798_10858)">
		<path id="减去顶层" d="M14.375 9.6687Q13.9053 9.6687 13.4834 9.8125Q13.2168 9.90381 12.9688 10.0531Q12.6504 10.2452 12.3945 10.5007Q12.1387 10.7562 11.9473 11.075Q11.7676 11.3773 11.6719 11.7042Q11.5625 12.0768 11.5625 12.4812L11.5625 27.4906Q11.5625 27.9608 11.7061 28.3818L11.7061 28.3819Q11.7979 28.6492 11.9473 28.8969C12.2031 29.3281 12.5439 29.6687 12.9688 29.9187C13.3936 30.1749 13.8623 30.3031 14.375 30.3031L22.1426 30.3031C21.7451 29.954 21.4092 29.5416 21.1348 29.0656Q20.8506 28.5776 20.6875 28.0521Q20.4688 27.3459 20.4688 26.5718Q20.4688 25.769 20.7041 25.0425Q20.8643 24.5472 21.1348 24.0874C21.5781 23.3249 22.1816 22.7249 22.9443 22.2874Q23.4609 21.989 24.0176 21.8243Q24.7021 21.6218 25.4473 21.6218Q26.2207 21.6218 26.9277 21.8406Q27.4531 22.0035 27.9404 22.2874Q28.2021 22.436 28.4375 22.6096L28.4375 12.4812Q28.4375 12.0768 28.3281 11.7042Q28.2324 11.3773 28.0527 11.075C27.7969 10.65 27.4561 10.3093 27.0312 10.0531C26.6064 9.79681 26.1377 9.6687 25.625 9.6687L14.375 9.6687ZM15.4971 15.9467Q15.3965 15.8991 15.3125 15.8187Q15.1953 15.7068 15.1416 15.57Q15.0967 15.4548 15.0967 15.3218Q15.0967 15.1889 15.1416 15.0736Q15.1953 14.9369 15.3125 14.825Q15.4053 14.7317 15.5186 14.6806Q15.6543 14.6187 15.8184 14.6187L24.209 14.6187C24.4033 14.6187 24.5684 14.6874 24.7061 14.825Q24.7979 14.921 24.8467 15.0353Q24.9033 15.1665 24.9033 15.3218Q24.9033 15.4772 24.8467 15.6084Q24.7979 15.7227 24.7061 15.8187C24.5684 15.95 24.4033 16.0156 24.209 16.0156L15.8184 16.0156Q15.6416 16.0156 15.4971 15.9467ZM15.8184 19.9343Q15.666 19.9343 15.5381 19.8785Q15.4141 19.8246 15.3125 19.7187C15.1689 19.575 15.0967 19.4062 15.0967 19.2125Q15.0967 19.0795 15.1416 18.9642Q15.1953 18.8275 15.3125 18.7156Q15.3965 18.6351 15.4971 18.5876Q15.6416 18.5187 15.8184 18.5187L21.2373 18.5187C21.4316 18.5187 21.5967 18.5844 21.7344 18.7156Q21.8262 18.8116 21.875 18.9259Q21.9316 19.0571 21.9316 19.2125C21.9316 19.4062 21.8623 19.575 21.7246 19.7187C21.5811 19.8624 21.4121 19.9343 21.2188 19.9343L15.8184 19.9343Z" clip-rule="evenodd" fill="#0A59F7" fill-opacity="1.000000" fill-rule="evenodd"/>
		<path id="path" d="M21.68 26.57C21.68 27.24 21.85 27.87 22.19 28.44C22.53 29.02 22.98 29.48 23.56 29.82C24.14 30.16 24.77 30.33 25.44 30.33C26.12 30.33 26.74 30.16 27.32 29.82C27.9 29.48 28.36 29.02 28.7 28.44C29.03 27.87 29.2 27.24 29.2 26.57C29.2 25.89 29.03 25.27 28.7 24.7C28.36 24.13 27.9 23.67 27.32 23.33C26.74 23 26.12 22.83 25.44 22.83C24.77 22.83 24.14 23 23.56 23.33C22.98 23.67 22.53 24.13 22.19 24.7C21.85 25.27 21.68 25.89 21.68 26.57ZM27.18 27.63C27.26 27.73 27.31 27.84 27.31 27.97C27.31 28.1 27.25 28.21 27.15 28.3C27.06 28.39 26.95 28.43 26.82 28.43C26.7 28.43 26.59 28.39 26.5 28.3L25.1 26.9C25.03 26.83 24.99 26.72 24.99 26.57L24.99 24.65C24.99 24.52 25.04 24.4 25.12 24.32C25.22 24.22 25.32 24.18 25.44 24.18C25.57 24.18 25.69 24.22 25.78 24.32C25.87 24.4 25.91 24.52 25.91 24.65L25.91 26.39L27.18 27.63Z" fill="#0A59F7" fill-opacity="0.500000" fill-rule="nonzero"/>
	</g>
</svg>
