<svg width="40.000000" height="40.000000" viewBox="0 0 40 40" fill="none" xmlns="http://www.w3.org/2000/svg" xmlns:xlink="http://www.w3.org/1999/xlink">
	<desc>
			Created with Pixso.
	</desc>
	<defs>
		<clipPath id="clip798_10828">
			<rect id="clean_fill" width="40.00000" height="40.00000" transform="translate(8.750000 8.750000)" fill="white" fill-opacity="0"/>
		</clipPath>
	</defs>
	<circle id="椭圆 57" cx="20.000000" cy="20.000000" r="20.000000" fill="#0A59F7" fill-opacity="0.100275"/>
	<g clip-path="url(#clip798_10828)">
		<g opacity="0.000000">
			<rect id="rect" x="8.750000" y="8.750000" width="22.500000" height="22.500000" fill="#000000" fill-opacity="1.000000"/>
		</g>
		<path id="path" d="M27.92 19.68C27.92 19.21 27.8 18.79 27.57 18.4C27.33 18.01 27.02 17.7 26.63 17.46C26.25 17.23 25.82 17.12 25.35 17.12L22.74 17.12C22.62 17.12 22.52 17.08 22.43 17C22.35 16.91 22.31 16.8 22.31 16.69L22.31 11.46C22.31 11.14 22.23 10.83 22.07 10.55C21.9 10.26 21.67 10.03 21.39 9.87C21.1 9.71 20.8 9.63 20.46 9.63C20.12 9.63 19.81 9.71 19.54 9.87C19.25 10.03 19.03 10.26 18.87 10.55C18.71 10.83 18.63 11.14 18.63 11.46L18.63 16.69C18.63 16.79 18.58 16.89 18.5 16.98C18.41 17.07 18.31 17.12 18.2 17.12L15.5 17.12C15.03 17.12 14.6 17.23 14.21 17.46C13.82 17.7 13.51 18.01 13.28 18.4C13.05 18.79 12.93 19.21 12.93 19.68L12.93 20.17L27.92 20.17L27.92 19.68ZM12.91 25.01C12.91 25.91 12.85 26.72 12.72 27.43C12.59 28.14 12.41 28.69 12.19 29.06C12.08 29.24 12.05 29.43 12.08 29.63C12.12 29.84 12.21 30.01 12.36 30.14C12.51 30.28 12.7 30.35 12.91 30.35L15.83 30.35C16.35 29.79 16.74 29.11 17 28.31C17.27 27.5 17.41 26.74 17.41 26.02L17.41 23.21C17.41 23.02 17.48 22.85 17.61 22.71C17.75 22.58 17.91 22.52 18.1 22.52C18.3 22.52 18.47 22.58 18.6 22.71C18.74 22.85 18.8 23.02 18.8 23.21L18.8 26.02C18.8 26.77 18.7 27.53 18.49 28.28C18.28 29.05 17.98 29.73 17.59 30.35L20.51 30.35C21.02 29.79 21.41 29.11 21.68 28.31C21.95 27.5 22.09 26.74 22.09 26.02L22.09 23.21C22.09 23.02 22.16 22.85 22.29 22.71C22.42 22.58 22.59 22.52 22.79 22.52C22.98 22.52 23.15 22.58 23.28 22.71C23.41 22.85 23.48 23.02 23.48 23.21L23.48 26.02C23.48 26.77 23.38 27.53 23.16 28.28C22.96 29.05 22.66 29.73 22.26 30.35L25.35 30.35C25.82 30.35 26.25 30.23 26.63 30C27.02 29.77 27.33 29.45 27.57 29.06C27.8 28.67 27.92 28.25 27.92 27.78L27.92 21.57L12.91 21.57L12.91 25.01Z" fill="#0A59F7" fill-opacity="1.000000" fill-rule="nonzero"/>
	</g>
</svg>
