<svg width="40.000000" height="40.000000" viewBox="0 0 40 40" fill="none" xmlns="http://www.w3.org/2000/svg" xmlns:xlink="http://www.w3.org/1999/xlink">
	<desc>
			Created with Pixso.
	</desc>
	<defs>
		<clipPath id="clip800_10301">
			<rect id="cart_fill" width="40.00000" height="40.00000" transform="translate(8.750000 8.750000)" fill="white" fill-opacity="0"/>
		</clipPath>
	</defs>
	<circle id="椭圆 56" cx="20.000000" cy="20.000000" r="20.000000" fill="#0A59F7" fill-opacity="0.100275"/>
	<g clip-path="url(#clip800_10301)">
		<path id="减去顶层" d="M26.6367 22.8593C27.0244 22.8593 27.3809 22.6999 27.7061 22.3812C28.0312 22.0687 28.2217 21.6812 28.2773 21.2186L29.29 14.0843C29.3086 13.9905 29.3027 13.8968 29.2715 13.803C29.2402 13.703 29.1875 13.6093 29.1123 13.5218Q29.0137 13.4139 28.8906 13.3578Q28.7578 13.2968 28.5967 13.2968L14.3086 13.2968L13.9717 11.2718Q13.9512 11.1637 13.9023 11.071Q13.8369 10.9466 13.7188 10.8499C13.5869 10.7374 13.4375 10.6812 13.2686 10.6812L11.4023 10.6812Q11.2588 10.6812 11.1367 10.7314Q11.0107 10.783 10.9062 10.8874Q10.8145 10.9834 10.7656 11.0977Q10.709 11.2289 10.709 11.3843Q10.709 11.5396 10.7656 11.6708L10.7656 11.6708Q10.8145 11.7852 10.9062 11.8812Q11.002 11.9728 11.1162 12.0218Q11.2471 12.078 11.4023 12.078L12.6875 12.078L14.3281 21.5936C13.9404 21.7311 13.625 21.9686 13.3809 22.3062C13.1436 22.6437 13.0244 23.0218 13.0244 23.4406C13.0244 23.803 13.1152 24.1374 13.2969 24.4437C13.4775 24.7499 13.7217 24.9937 14.0273 25.1749Q14.2266 25.2928 14.4424 25.3596Q14.7227 25.4468 15.0312 25.4468L27.584 25.4468C27.7773 25.4468 27.9434 25.3749 28.0811 25.2311C28.2119 25.0874 28.2773 24.9186 28.2773 24.7249C28.2773 24.5311 28.2119 24.3655 28.0811 24.228C27.9434 24.0968 27.7773 24.0311 27.584 24.0311L15.0029 24.0311Q14.8721 24.0311 14.7627 23.9827Q14.6689 23.9407 14.5898 23.8624C14.4775 23.7499 14.4219 23.6093 14.4219 23.4406C14.4219 23.278 14.4805 23.1405 14.5996 23.028Q14.7168 22.9173 14.8535 22.8792Q14.9258 22.8593 15.0029 22.8593L26.6367 22.8593ZM26.6562 16.353C26.5254 16.4905 26.3633 16.5593 26.1689 16.5593L23.5068 16.5593C23.3125 16.5593 23.1504 16.4905 23.0195 16.353C22.8818 16.2218 22.8125 16.0562 22.8125 15.8562C22.8125 15.6624 22.8818 15.4999 23.0195 15.3687C23.1504 15.2312 23.3125 15.1624 23.5068 15.1624L26.1689 15.1624C26.3633 15.1624 26.5254 15.2312 26.6562 15.3687C26.7939 15.4999 26.8633 15.6624 26.8633 15.8562Q26.8633 16.0307 26.793 16.1703Q26.7432 16.2708 26.6562 16.353ZM16.334 27.6686C16.334 28.1187 16.4932 28.5062 16.8125 28.8312C17.1367 29.1561 17.5244 29.3187 17.9746 29.3187C18.4248 29.3187 18.8125 29.1561 19.1367 28.8312C19.4561 28.5062 19.6152 28.1187 19.6152 27.6686C19.6152 27.2186 19.4561 26.8343 19.1367 26.5155C18.8125 26.1906 18.4248 26.028 17.9746 26.028Q17.6611 26.028 17.3887 26.1329Q17.0732 26.2542 16.8125 26.5155C16.4932 26.8343 16.334 27.2186 16.334 27.6686ZM22.9062 27.6686C22.9062 28.1187 23.0625 28.5062 23.375 28.8312C23.6875 29.1561 24.0684 29.3187 24.5186 29.3187C24.9873 29.3187 25.3779 29.1561 25.6904 28.8312C26.0088 28.5062 26.168 28.1187 26.168 27.6686C26.168 27.2186 26.0088 26.8343 25.6904 26.5155Q25.4854 26.3026 25.2363 26.1827Q24.9141 26.028 24.5186 26.028C24.0684 26.028 23.6875 26.1906 23.375 26.5155C23.0625 26.8343 22.9062 27.2186 22.9062 27.6686Z" clip-rule="evenodd" fill="#0A59F7" fill-opacity="1.000000" fill-rule="evenodd"/>
		<path id="path" d="M26.16 16.55C26.36 16.55 26.52 16.49 26.65 16.35C26.79 16.22 26.86 16.05 26.86 15.85C26.86 15.66 26.79 15.5 26.65 15.36C26.52 15.23 26.36 15.16 26.16 15.16L23.5 15.16C23.31 15.16 23.15 15.23 23.01 15.36C22.88 15.5 22.81 15.66 22.81 15.85C22.81 16.05 22.88 16.22 23.01 16.35C23.15 16.49 23.31 16.55 23.5 16.55L26.16 16.55Z" fill="#0A59F7" fill-opacity="0.501961" fill-rule="nonzero"/>
	</g>
</svg>
