<svg width="40.000000" height="40.000000" viewBox="0 0 40 40" fill="none" xmlns="http://www.w3.org/2000/svg" xmlns:xlink="http://www.w3.org/1999/xlink">
	<desc>
			Created with Pixso.
	</desc>
	<defs>
		<clipPath id="clip798_10920">
			<rect id="checkmark_clipboard_fill" width="40.00000" height="40.00000" transform="translate(8.750000 8.750000)" fill="white" fill-opacity="0"/>
		</clipPath>
	</defs>
	<circle id="椭圆 60" cx="20.000000" cy="20.000000" r="20.000000" fill="#0A59F7" fill-opacity="0.100275"/>
	<g clip-path="url(#clip798_10920)">
		<mask id="mask798_10924" mask-type="alpha" maskUnits="userSpaceOnUse" x="8.750000" y="8.750000" width="22.500000" height="22.500000">
			<rect id="rect" x="8.750000" y="8.750000" width="22.500000" height="22.500000" fill="#FFFFFF" fill-opacity="1.000000"/>
			<path id="path" d="M19.08 24.54C18.58 24.54 18.15 24.36 17.79 24L15.29 21.5C15.16 21.37 15.09 21.2 15.09 21.01C15.09 20.81 15.16 20.65 15.29 20.51C15.43 20.38 15.59 20.31 15.79 20.31C15.98 20.31 16.14 20.38 16.28 20.51L18.78 23.01C18.85 23.07 18.95 23.1 19.08 23.1C19.2 23.1 19.28 23.07 19.34 23.01L24.2 18.15C24.34 18.02 24.5 17.95 24.7 17.95C24.89 17.95 25.06 18.02 25.19 18.15C25.33 18.29 25.39 18.45 25.39 18.65C25.39 18.84 25.33 19 25.19 19.14L20.33 24C20 24.36 19.58 24.54 19.08 24.54Z" fill="#000000" fill-opacity="1.000000" fill-rule="nonzero"/>
		</mask>
		<path id="减去顶层" d="M23.0371 13.5406C23.2939 13.5406 23.5156 13.4468 23.7031 13.2593C23.8906 13.0718 23.9844 12.85 23.9844 12.5938L23.9844 11.0187C23.9844 10.7687 23.8906 10.55 23.7031 10.3625C23.5156 10.175 23.2939 10.0812 23.0371 10.0812L16.9629 10.0812C16.7061 10.0812 16.4844 10.175 16.2969 10.3625Q16.1279 10.5312 16.0605 10.7338Q16.0156 10.8687 16.0156 11.0187L16.0156 12.5938Q16.0156 12.7635 16.0703 12.9132Q16.1396 13.1024 16.2969 13.2593C16.4844 13.4468 16.7061 13.5406 16.9629 13.5406L23.0371 13.5406ZM25.1934 12.5938C25.1934 13.1937 24.9844 13.7062 24.5654 14.1312C24.1465 14.55 23.6377 14.7593 23.0371 14.7593L16.9629 14.7593Q16.6514 14.7593 16.3643 14.676Q16.1152 14.6037 15.8848 14.4688C15.5527 14.2687 15.291 14.0062 15.0967 13.6812Q14.9785 13.4794 14.9092 13.2621Q14.8066 12.9445 14.8066 12.5938L14.8066 11.1594Q13.9893 11.1594 13.3174 11.4718Q13.2266 11.5143 13.1377 11.5625Q12.7197 11.79 12.4033 12.116Q12.1592 12.3677 11.9746 12.6781Q11.8037 12.9703 11.7031 13.2852L11.7031 13.2852Q11.5625 13.728 11.5625 14.2156L11.5625 26.8625C11.5625 27.4188 11.7002 27.9281 11.9746 28.3906C12.2559 28.8594 12.6279 29.2313 13.0908 29.5062Q13.4707 29.729 13.8799 29.8315Q14.2295 29.9188 14.5996 29.9188L25.4004 29.9188Q25.7705 29.9188 26.1201 29.8315Q26.5293 29.729 26.9092 29.5062C27.3721 29.2313 27.7441 28.8594 28.0254 28.3906C28.2998 27.9281 28.4375 27.4188 28.4375 26.8625L28.4375 14.2156Q28.4375 13.728 28.2969 13.2852Q28.1963 12.9703 28.0254 12.6781C27.7441 12.2031 27.3564 11.8312 26.8623 11.5625Q26.7744 11.5143 26.6826 11.4719L26.6826 11.4718Q26.0107 11.1594 25.1934 11.1594L25.1934 12.5938ZM19.833 24.3842Q19.4961 24.5468 19.0811 24.5468Q18.7266 24.5468 18.4199 24.4253Q18.0781 24.2898 17.7969 24.003L15.293 21.5093C15.1621 21.3718 15.0967 21.2061 15.0967 21.0124C15.0967 20.8187 15.1621 20.653 15.293 20.5155Q15.3896 20.4239 15.5039 20.3749Q15.6348 20.3187 15.79 20.3187Q15.9453 20.3187 16.0771 20.3749Q16.1914 20.4239 16.2871 20.5155L18.7812 23.0186C18.8555 23.0749 18.9561 23.103 19.0811 23.103C19.1992 23.103 19.2871 23.0749 19.3438 23.0186L24.209 18.153C24.3398 18.0218 24.5059 17.9561 24.7061 17.9561C24.8994 17.9561 25.0625 18.0218 25.1934 18.153C25.3311 18.2905 25.3994 18.4561 25.3994 18.6499C25.3994 18.8436 25.3311 19.0093 25.1934 19.1468L20.3369 24.003Q20.1123 24.2495 19.833 24.3842Z" clip-rule="evenodd" fill="#0A59F7" fill-opacity="1.000000" fill-rule="evenodd"/>
		<path id="path" d="M19.08 24.54C19.58 24.54 20 24.36 20.33 24L25.19 19.14C25.33 19 25.39 18.84 25.39 18.65C25.39 18.45 25.33 18.29 25.19 18.15C25.06 18.02 24.89 17.95 24.7 17.95C24.5 17.95 24.34 18.02 24.2 18.15L19.34 23.01C19.28 23.07 19.2 23.1 19.08 23.1C18.95 23.1 18.85 23.07 18.78 23.01L16.28 20.51C16.14 20.38 15.98 20.31 15.79 20.31C15.59 20.31 15.43 20.38 15.29 20.51C15.16 20.65 15.09 20.81 15.09 21.01C15.09 21.2 15.16 21.37 15.29 21.5L17.79 24C18.15 24.36 18.58 24.54 19.08 24.54Z" fill="#0A59F7" fill-opacity="0.501961" fill-rule="nonzero"/>
	</g>
</svg>
